<svg width="583" height="199" viewBox="0 0 583 199" fill="none" xmlns="http://www.w3.org/2000/svg">
<circle cx="123.381" cy="9.57564" r="8.92534" fill="url(#paint0_linear_15_39)"/>
<circle cx="18.8271" cy="189.357" r="8.92534" fill="url(#paint1_linear_15_39)"/>
<g clip-path="url(#clip0_15_39)">
<path d="M107.37 68.8369C96.9295 67.2438 86.2559 68.3185 76.3428 71.9609L74.2956 72.7419C60.8782 78.1775 46.2434 79.8945 31.9322 77.7119C25.7907 76.7653 19.3889 75.2388 13.7799 72.4402C11.7361 71.4273 10.1607 69.6664 9.38068 67.5228C8.60069 65.3793 8.67599 63.0177 9.59096 60.9282C10.5059 58.8387 12.1903 57.1817 14.2945 56.3011C16.3988 55.4205 18.7613 55.3839 20.8917 56.1989L21.6727 56.5421C25.7079 58.4354 30.2519 59.4945 34.6302 60.169C42.5822 61.3878 53.463 61.4707 65.6573 57.0391L67.7044 56.2581C81.1218 50.8225 95.7566 49.1056 110.068 51.2881C116.209 52.2348 122.605 53.7672 128.208 56.5539C130.301 57.6217 131.891 59.4692 132.635 61.6983C133.379 63.9273 133.217 66.3593 132.184 68.4701C130.001 72.8366 125.546 73.8365 120.321 72.4579L107.37 68.8369ZM107.37 104.337C96.9295 102.744 86.2559 103.818 76.3428 107.461L74.2956 108.242C60.8782 113.678 46.2434 115.394 31.9322 113.212C25.7907 112.265 19.3889 110.739 13.7799 107.94C11.7361 106.927 10.1607 105.166 9.38068 103.023C8.60069 100.879 8.67599 98.5177 9.59096 96.4282C10.5059 94.3387 12.1903 92.6817 14.2945 91.8011C16.3988 90.9205 18.7613 90.8839 20.8917 91.6989L21.6727 92.0421C25.7079 93.9354 30.2519 94.9945 34.6302 95.669C42.5822 96.8878 53.463 96.9707 65.6573 92.5391L67.7044 91.7581C81.1218 86.3225 95.7566 84.6056 110.068 86.7881C116.209 87.7348 122.605 89.2672 128.208 92.0539C130.301 93.1217 131.891 94.9692 132.635 97.1983C133.379 99.4273 133.217 101.859 132.184 103.97C130.001 108.343 125.546 109.337 120.321 107.958L107.37 104.337ZM72.1419 144.57L74.2956 143.742C84.7674 139.485 96.1945 138.136 107.37 139.837L120.327 143.458C125.546 144.837 130.001 143.843 132.19 139.47C133.221 137.359 133.381 134.928 132.636 132.7C131.891 130.473 130.301 128.627 128.208 127.56C122.605 124.767 116.209 123.241 110.068 122.294C96.5286 120.225 82.6854 121.651 69.8522 126.436L67.7044 127.264C54.6759 132.471 43.0201 132.459 34.6302 131.169C30.8791 130.589 26.9977 129.731 23.43 128.305L21.6727 127.536C19.5637 126.49 17.1253 126.324 14.894 127.075C12.6626 127.826 10.821 129.433 9.77433 131.542C8.72768 133.651 8.56169 136.089 9.31288 138.321C10.0641 140.552 11.6709 142.394 13.7799 143.44C19.383 146.239 25.7907 147.765 31.9322 148.706C42.2982 150.304 56.445 150.363 72.1419 144.564V144.57Z" fill="white"/>
</g>
<path d="M227.911 157.625C220.565 157.625 213.982 156.432 208.163 154.047C202.343 151.662 197.669 148.133 194.139 143.458C190.705 138.783 188.892 133.155 188.701 126.572H214.745C215.127 130.293 216.415 133.155 218.609 135.158C220.803 137.066 223.665 138.02 227.195 138.02C230.82 138.02 233.682 137.209 235.781 135.587C237.88 133.87 238.929 131.533 238.929 128.576C238.929 126.095 238.071 124.044 236.354 122.422C234.732 120.8 232.681 119.465 230.2 118.415C227.815 117.366 224.381 116.174 219.897 114.838C213.41 112.835 208.115 110.831 204.013 108.828C199.911 106.824 196.381 103.867 193.423 99.9556C190.466 96.0442 188.987 90.9403 188.987 84.6438C188.987 75.2946 192.374 67.9965 199.147 62.7495C205.921 57.4071 214.745 54.7359 225.621 54.7359C236.687 54.7359 245.607 57.4071 252.381 62.7495C259.154 67.9965 262.779 75.3423 263.256 84.7869H236.783C236.592 81.5433 235.4 79.0152 233.205 77.2026C231.011 75.2946 228.197 74.3406 224.762 74.3406C221.805 74.3406 219.42 75.1515 217.607 76.7733C215.795 78.2997 214.888 80.5416 214.888 83.499C214.888 86.7426 216.415 89.2707 219.468 91.0833C222.521 92.896 227.291 94.8517 233.778 96.9505C240.265 99.1447 245.512 101.243 249.519 103.247C253.621 105.25 257.151 108.16 260.108 111.976C263.066 115.792 264.544 120.705 264.544 126.715C264.544 132.439 263.066 137.639 260.108 142.313C257.246 146.988 253.049 150.708 247.515 153.475C241.982 156.242 235.447 157.625 227.911 157.625ZM315.951 157.768C308.128 157.768 301.068 156.099 294.772 152.76C288.571 149.421 283.658 144.65 280.033 138.449C276.503 132.248 274.738 124.998 274.738 116.698C274.738 108.494 276.55 101.291 280.176 95.0902C283.801 88.7937 288.762 83.976 295.058 80.637C301.355 77.298 308.414 75.6285 316.237 75.6285C324.06 75.6285 331.119 77.298 337.416 80.637C343.712 83.976 348.673 88.7937 352.298 95.0902C355.923 101.291 357.736 108.494 357.736 116.698C357.736 124.903 355.876 132.153 352.155 138.449C348.53 144.65 343.521 149.421 337.13 152.76C330.833 156.099 323.774 157.768 315.951 157.768ZM315.951 136.589C320.625 136.589 324.584 134.872 327.828 131.438C331.167 128.003 332.837 123.09 332.837 116.698C332.837 110.306 331.215 105.393 327.971 101.959C324.823 98.5246 320.912 96.8074 316.237 96.8074C311.467 96.8074 307.508 98.5246 304.36 101.959C301.211 105.298 299.637 110.211 299.637 116.698C299.637 123.09 301.164 128.003 304.217 131.438C307.365 134.872 311.276 136.589 315.951 136.589ZM419.372 75.9147C428.721 75.9147 436.162 78.9675 441.695 85.0731C447.324 91.0834 450.138 99.3832 450.138 109.973V156.623H425.811V113.264C425.811 107.921 424.428 103.772 421.661 100.814C418.895 97.8568 415.174 96.3781 410.5 96.3781C405.825 96.3781 402.104 97.8568 399.338 100.814C396.571 103.772 395.188 107.921 395.188 113.264V156.623H370.718V76.7733H395.188V87.3627C397.668 83.8329 401.007 81.0663 405.205 79.0629C409.403 76.9641 414.125 75.9147 419.372 75.9147ZM479.449 68.4735C475.156 68.4735 471.627 67.2333 468.86 64.7529C466.189 62.1771 464.853 59.0289 464.853 55.3083C464.853 51.4923 466.189 48.3441 468.86 45.8637C471.627 43.2879 475.156 42 479.449 42C483.647 42 487.081 43.2879 489.753 45.8637C492.519 48.3441 493.902 51.4923 493.902 55.3083C493.902 59.0289 492.519 62.1771 489.753 64.7529C487.081 67.2333 483.647 68.4735 479.449 68.4735ZM491.613 76.7733V156.623H467.143V76.7733H491.613ZM504.481 116.698C504.481 108.398 506.15 101.148 509.489 94.9471C512.924 88.746 517.646 83.976 523.656 80.637C529.762 77.298 536.726 75.6285 544.549 75.6285C554.566 75.6285 562.913 78.252 569.591 83.499C576.365 88.746 580.801 96.1396 582.9 105.68H556.855C554.661 99.574 550.416 96.5212 544.119 96.5212C539.636 96.5212 536.058 98.2861 533.387 101.816C530.716 105.25 529.38 110.211 529.38 116.698C529.38 123.185 530.716 128.194 533.387 131.724C536.058 135.158 539.636 136.875 544.119 136.875C550.416 136.875 554.661 133.823 556.855 127.717H582.9C580.801 137.066 576.365 144.412 569.591 149.754C562.818 155.097 554.47 157.768 544.549 157.768C536.726 157.768 529.762 156.099 523.656 152.76C517.646 149.421 512.924 144.65 509.489 138.449C506.15 132.248 504.481 124.998 504.481 116.698Z" fill="white"/>
<defs>
<linearGradient id="paint0_linear_15_39" x1="107.707" y1="15.2213" x2="133.558" y2="4.11902" gradientUnits="userSpaceOnUse">
<stop stop-color="white"/>
<stop offset="1" stop-color="white"/>
</linearGradient>
<linearGradient id="paint1_linear_15_39" x1="3.15337" y1="195.003" x2="29.0042" y2="183.901" gradientUnits="userSpaceOnUse">
<stop stop-color="white"/>
<stop offset="1" stop-color="white"/>
</linearGradient>
<clipPath id="clip0_15_39">
<rect width="142" height="142" fill="white" transform="translate(0 29)"/>
</clipPath>
</defs>
</svg>
